<svg id="Capa_1" enable-background="new 0 0 512 512" height="512" viewBox="0 0 512 512" width="512" xmlns="http://www.w3.org/2000/svg"><g><path d="m504.5 135h-219.697c-3.913-75.102-66.244-135-142.303-135-78.575 0-142.5 63.925-142.5 142.5v227c0 78.575 63.925 142.5 142.5 142.5h362c4.143 0 7.5-3.358 7.5-7.5v-362c0-4.142-3.357-7.5-7.5-7.5zm-489.5 7.5c0-70.304 57.196-127.5 127.5-127.5s127.5 57.196 127.5 127.5v163.413c-23.407-46.743-71.763-78.913-127.5-78.913s-104.093 32.17-127.5 78.913zm0 227c0-70.304 57.196-127.5 127.5-127.5s127.5 57.196 127.5 127.5-57.196 127.5-127.5 127.5-127.5-57.196-127.5-127.5zm191.087 127.5c46.743-23.407 78.913-71.763 78.913-127.5v-219.5h182v174.5c0 20.678-16.822 37.5-37.5 37.5h-90c-4.143 0-7.5 3.358-7.5 7.5v90c0 20.678-16.822 37.5-37.5 37.5zm223.959-120.014-83.06 83.06c.002-.183.014-.363.014-.546v-82.5h82.5c.183 0 .363-.012.546-.014zm66.954 120.014h-165.808c.136-.133.279-.26.414-.394.017.017 135-135 135-135 9.506-9.507 15.394-22.632 15.394-37.106v-174.5h15z"/><path d="m142.5 452c45.491 0 82.5-37.009 82.5-82.5s-37.009-82.5-82.5-82.5-82.5 37.009-82.5 82.5 37.009 82.5 82.5 82.5zm0-150c37.22 0 67.5 30.28 67.5 67.5s-30.28 67.5-67.5 67.5-67.5-30.28-67.5-67.5 30.28-67.5 67.5-67.5z"/><path d="m142.5 422c28.949 0 52.5-23.551 52.5-52.5s-23.551-52.5-52.5-52.5-52.5 23.551-52.5 52.5 23.551 52.5 52.5 52.5zm0-90c20.678 0 37.5 16.822 37.5 37.5s-16.822 37.5-37.5 37.5-37.5-16.822-37.5-37.5 16.822-37.5 37.5-37.5z"/><path d="m142.5 257c-24.511 0-47.81 7.747-67.378 22.402-3.315 2.483-3.99 7.184-1.507 10.499s7.183 3.991 10.499 1.507c16.953-12.697 37.142-19.408 58.386-19.408 53.762 0 97.5 43.738 97.5 97.5s-43.738 97.5-97.5 97.5-97.5-43.738-97.5-97.5c0-21.244 6.711-41.433 19.408-58.386 2.483-3.315 1.809-8.016-1.507-10.499-3.316-2.484-8.016-1.809-10.499 1.507-14.655 19.568-22.402 42.867-22.402 67.378 0 62.033 50.467 112.5 112.5 112.5s112.5-50.467 112.5-112.5-50.467-112.5-112.5-112.5z"/></g></svg>