<?xml version="1.0" encoding="UTF-8"?>
<svg xmlns="http://www.w3.org/2000/svg" id="Layer_3" data-name="Layer 3" viewBox="0 0 64 64" width="512" height="512"><path d="M59.171,12a3.8,3.8,0,0,0-2.707,1.122L49,20.586V2a1,1,0,0,0-1-1H8A1,1,0,0,0,7,2V7H2A1,1,0,0,0,1,8V62a1,1,0,0,0,1,1H42a1,1,0,0,0,1-1V57h5a1,1,0,0,0,1-1V31.414L61.878,18.536A3.828,3.828,0,0,0,59.171,12ZM39,38.586,36.414,36,51,21.414,53.586,24ZM33.9,41.1l1.433-3.345,1.911,1.911ZM31.77,41H27v2h4.01a.992.992,0,0,0,1.384.919L37,41.945V57H7V36H33.912ZM52.414,20,54,18.414,56.586,21,55,22.586ZM9,3H47V22.586l-4,4V8a1,1,0,0,0-1-1H9ZM3,61V9H41V28.586L35.586,34H6a1,1,0,0,0-1,1V58a1,1,0,0,0,1,1H38a1,1,0,0,0,1-1V41.088l.394-.169a1,1,0,0,0,.313-.212L41,39.414V61Zm44-6H43V37.414l4-4ZM60.464,17.122,58,19.586,55.414,17l2.464-2.464a1.829,1.829,0,1,1,2.586,2.586Z"/><path d="M22,33A11,11,0,1,0,11,22,11.013,11.013,0,0,0,22,33Zm0-20a9,9,0,1,1-9,9A9.011,9.011,0,0,1,22,13Z"/><path d="M22,27a2,2,0,0,1-2-2H18a4,4,0,0,0,3,3.858V30h2V28.858A3.992,3.992,0,0,0,22,21a2,2,0,1,1,2-2h2a4,4,0,0,0-3-3.858V14H21v1.142A3.992,3.992,0,0,0,22,23a2,2,0,0,1,0,4Z"/><rect x="13" y="41" width="12" height="2"/><rect x="9" y="45" width="26" height="2"/><rect x="9" y="49" width="26" height="2"/></svg>
