<svg height="512" viewBox="0 0 128 128" width="512" xmlns="http://www.w3.org/2000/svg"><g><path d="m126.315 33.969-3.358-3.359a5.757 5.757 0 0 0 -8.132 0l-27.2 27.2v-50.218a1.749 1.749 0 0 0 -1.75-1.75h-84.125a1.75 1.75 0 0 0 -1.75 1.75v112.816a1.75 1.75 0 0 0 1.75 1.75h84.125a1.749 1.749 0 0 0 1.75-1.75v-39.617l38.69-38.69a5.755 5.755 0 0 0 0-8.132zm-61.5 63.565-9.794 4.374 4.375-9.794.773.773zm19.314 21.124h-80.629v-109.316h80.625v51.968l-10.191 10.19h-64.184a1.75 1.75 0 0 0 0 3.5h60.684l-6.719 6.719h-53.965a1.75 1.75 0 0 0 0 3.5h50.465l-2.621 2.621a2.521 2.521 0 0 0 -.36.523l-1.6 3.575h-45.884a1.75 1.75 0 0 0 0 3.5h44.324l-3 6.718h-41.324a1.75 1.75 0 0 0 0 3.5h41l.523.524a1.753 1.753 0 0 0 1.952.36l15.334-6.85a2.476 2.476 0 0 0 .524-.36l15.042-15.039zm-16.282-23.038-6.541-6.541 43.266-43.266 6.541 6.54zm45.741-45.741-6.541-6.541 3.889-3.89 6.541 6.541zm10.253-10.253-3.889 3.889-6.541-6.541 3.889-3.889a2.253 2.253 0 0 1 3.182 0l3.359 3.358a2.254 2.254 0 0 1 0 3.183z"/><path d="m9.75 35.346h68.125a1.749 1.749 0 0 0 1.75-1.75v-18a1.749 1.749 0 0 0 -1.75-1.75h-68.125a1.75 1.75 0 0 0 -1.75 1.746v18a1.75 1.75 0 0 0 1.75 1.754zm1.75-18h64.625v14.5h-64.625z"/><path d="m9.75 44.346h68.125a1.75 1.75 0 0 0 0-3.5h-68.125a1.75 1.75 0 0 0 0 3.5z"/><path d="m9.75 54.565h68.125a1.75 1.75 0 0 0 0-3.5h-68.125a1.75 1.75 0 0 0 0 3.5z"/><path d="m9.75 64.783h68.125a1.75 1.75 0 0 0 0-3.5h-68.125a1.75 1.75 0 0 0 0 3.5z"/></g></svg>