<svg id="Capa_1" enable-background="new 0 0 497 497" height="512" viewBox="0 0 497 497" width="512" xmlns="http://www.w3.org/2000/svg"><g><path d="m497 142.5v347c0 4.142-3.358 7.5-7.5 7.5h-22.5l-150-181 150-181h22.5c4.142 0 7.5 3.358 7.5 7.5z" fill="#ffeaa6"/><path d="m287 497h180v-180z" fill="#fff8e3"/><path d="m302 332 16.82 151.82 135-135z" fill="#ffc40f"/><path d="m467 135v182c0 12.42-5.04 23.68-13.18 31.82s-19.4 13.18-31.82 13.18h-90v90c0 12.42-5.04 23.68-13.18 31.82s-19.4 13.18-31.82 13.18h-152v-362z" fill="#ffd959"/><path d="m135 0v362h135s0-152.442 0-227-60.442-135-135-135z" fill="#ffc40f"/><path d="m135 0c-74.558 0-135 60.442-135 135s0 227 0 227h240s0-152.442 0-227-47.01-135-105-135z" fill="#ffd959"/><circle cx="135" cy="362" fill="#fff8e3" r="135"/><circle cx="135" cy="362" fill="#ffeaa6" r="105"/><circle cx="135" cy="362" fill="#fff8e3" r="75"/><circle cx="135" cy="362" fill="#a0a2a6" r="45"/></g></svg>