<svg height="512" viewBox="0 0 64 64" width="512" xmlns="http://www.w3.org/2000/svg"><g id="Layer_15" data-name="Layer 15"><path d="m2 8h40v54h-40z" fill="#e2e7f6"/><path d="m2 8h36v50h-36z" fill="#f2f2f2"/><path d="m6 35h32v23h-32z" fill="#5e87ca"/><path d="m35 52v-17h-29v19h27a2 2 0 0 0 2-2z" fill="#78a0d4"/><path d="m42 56h6v-54h-40v6h34z" fill="#c8cded"/><path d="m35 36 22.172-22.172a2.828 2.828 0 0 1 2-.828 2.828 2.828 0 0 1 2.828 2.828 2.828 2.828 0 0 1 -.828 2l-22.172 22.172-7 3z" fill="#474747"/><path d="m52.379 17.672h4.243v5.657h-4.243z" fill="#b5b5b5" transform="matrix(.707 -.707 .707 .707 1.467 44.542)"/><path d="m39 40-4-4-3 7z" fill="#686868"/><circle cx="22" cy="22" fill="#f4a93c" r="10"/><path d="m30 21a9.984 9.984 0 0 0 -4.543-8.373 9.991 9.991 0 0 0 -8.914 17.746 9.976 9.976 0 0 0 13.457-9.373z" fill="#f6b940"/><path d="m22 21a2 2 0 1 1 2-2h2a4 4 0 0 0 -3-3.858v-1.142h-2v1.142a3.992 3.992 0 0 0 1 7.858 2 2 0 1 1 -2 2h-2a4 4 0 0 0 3 3.858v1.142h2v-1.142a3.992 3.992 0 0 0 -1-7.858z" fill="#d5883e"/><g fill="#c0dafc"><path d="m13 41h12v2h-12z"/><path d="m27 41h4.429v2h-4.429z"/><path d="m9 45h26v2h-26z"/><path d="m9 49h26v2h-26z"/></g></g></svg>